<svg width="132" height="32" viewBox="0 0 132 32" fill="none" xmlns="http://www.w3.org/2000/svg">
<rect width="32" height="32" rx="10" fill="#7662EA"/>
<rect x="8" y="8" width="16" height="16" rx="8" fill="white"/>
<path d="M49.58 22.626C48.704 22.626 47.912 22.476 47.204 22.176C46.508 21.876 45.956 21.444 45.548 20.88C45.14 20.316 44.93 19.65 44.918 18.882H47.618C47.654 19.398 47.834 19.806 48.158 20.106C48.494 20.406 48.95 20.556 49.526 20.556C50.114 20.556 50.576 20.418 50.912 20.142C51.248 19.854 51.416 19.482 51.416 19.026C51.416 18.654 51.302 18.348 51.074 18.108C50.846 17.868 50.558 17.682 50.21 17.55C49.874 17.406 49.406 17.25 48.806 17.082C47.99 16.842 47.324 16.608 46.808 16.38C46.304 16.14 45.866 15.786 45.494 15.318C45.134 14.838 44.954 14.202 44.954 13.41C44.954 12.666 45.14 12.018 45.512 11.466C45.884 10.914 46.406 10.494 47.078 10.206C47.75 9.906 48.518 9.756 49.382 9.756C50.678 9.756 51.728 10.074 52.532 10.71C53.348 11.334 53.798 12.21 53.882 13.338H51.11C51.086 12.906 50.9 12.552 50.552 12.276C50.216 11.988 49.766 11.844 49.202 11.844C48.71 11.844 48.314 11.97 48.014 12.222C47.726 12.474 47.582 12.84 47.582 13.32C47.582 13.656 47.69 13.938 47.906 14.166C48.134 14.382 48.41 14.562 48.734 14.706C49.07 14.838 49.538 14.994 50.138 15.174C50.954 15.414 51.62 15.654 52.136 15.894C52.652 16.134 53.096 16.494 53.468 16.974C53.84 17.454 54.026 18.084 54.026 18.864C54.026 19.536 53.852 20.16 53.504 20.736C53.156 21.312 52.646 21.774 51.974 22.122C51.302 22.458 50.504 22.626 49.58 22.626ZM65.8048 12.528V22.5H63.2668V21.24C62.9428 21.672 62.5168 22.014 61.9888 22.266C61.4728 22.506 60.9088 22.626 60.2968 22.626C59.5168 22.626 58.8268 22.464 58.2268 22.14C57.6268 21.804 57.1528 21.318 56.8048 20.682C56.4688 20.034 56.3008 19.266 56.3008 18.378V12.528H58.8208V18.018C58.8208 18.81 59.0188 19.422 59.4148 19.854C59.8108 20.274 60.3508 20.484 61.0348 20.484C61.7308 20.484 62.2768 20.274 62.6728 19.854C63.0688 19.422 63.2668 18.81 63.2668 18.018V12.528H65.8048ZM73.9971 12.384C75.1851 12.384 76.1451 12.762 76.8771 13.518C77.6091 14.262 77.9751 15.306 77.9751 16.65V22.5H75.4551V16.992C75.4551 16.2 75.2571 15.594 74.8611 15.174C74.4651 14.742 73.9251 14.526 73.2411 14.526C72.5451 14.526 71.9931 14.742 71.5851 15.174C71.1891 15.594 70.9911 16.2 70.9911 16.992V22.5H68.4711V12.528H70.9911V13.77C71.3271 13.338 71.7531 13.002 72.2691 12.762C72.7971 12.51 73.3731 12.384 73.9971 12.384ZM84.3675 22.662C83.5515 22.662 82.8195 22.518 82.1715 22.23C81.5235 21.93 81.0075 21.528 80.6235 21.024C80.2515 20.52 80.0475 19.962 80.0115 19.35H82.5495C82.5975 19.734 82.7835 20.052 83.1075 20.304C83.4435 20.556 83.8575 20.682 84.3495 20.682C84.8295 20.682 85.2015 20.586 85.4655 20.394C85.7415 20.202 85.8795 19.956 85.8795 19.656C85.8795 19.332 85.7115 19.092 85.3755 18.936C85.0515 18.768 84.5295 18.588 83.8095 18.396C83.0655 18.216 82.4535 18.03 81.9735 17.838C81.5055 17.646 81.0975 17.352 80.7495 16.956C80.4135 16.56 80.2455 16.026 80.2455 15.354C80.2455 14.802 80.4015 14.298 80.7135 13.842C81.0375 13.386 81.4935 13.026 82.0815 12.762C82.6815 12.498 83.3835 12.366 84.1875 12.366C85.3755 12.366 86.3235 12.666 87.0315 13.266C87.7395 13.854 88.1295 14.652 88.2015 15.66H85.7895C85.7535 15.264 85.5855 14.952 85.2855 14.724C84.9975 14.484 84.6075 14.364 84.1155 14.364C83.6595 14.364 83.3055 14.448 83.0535 14.616C82.8135 14.784 82.6935 15.018 82.6935 15.318C82.6935 15.654 82.8615 15.912 83.1975 16.092C83.5335 16.26 84.0555 16.434 84.7635 16.614C85.4835 16.794 86.0775 16.98 86.5455 17.172C87.0135 17.364 87.4155 17.664 87.7515 18.072C88.0995 18.468 88.2795 18.996 88.2915 19.656C88.2915 20.232 88.1295 20.748 87.8055 21.204C87.4935 21.66 87.0375 22.02 86.4375 22.284C85.8495 22.536 85.1595 22.662 84.3675 22.662ZM93.4741 14.598V19.422C93.4741 19.758 93.5521 20.004 93.7081 20.16C93.8761 20.304 94.1521 20.376 94.5361 20.376H95.7061V22.5H94.1221C91.9981 22.5 90.9361 21.468 90.9361 19.404V14.598H89.7481V12.528H90.9361V10.062H93.4741V12.528H95.7061V14.598H93.4741ZM102.127 22.662C101.167 22.662 100.303 22.452 99.5346 22.032C98.7666 21.6 98.1606 20.994 97.7166 20.214C97.2846 19.434 97.0686 18.534 97.0686 17.514C97.0686 16.494 97.2906 15.594 97.7346 14.814C98.1906 14.034 98.8086 13.434 99.5886 13.014C100.369 12.582 101.239 12.366 102.199 12.366C103.159 12.366 104.029 12.582 104.809 13.014C105.589 13.434 106.201 14.034 106.645 14.814C107.101 15.594 107.329 16.494 107.329 17.514C107.329 18.534 107.095 19.434 106.627 20.214C106.171 20.994 105.547 21.6 104.755 22.032C103.975 22.452 103.099 22.662 102.127 22.662ZM102.127 20.466C102.583 20.466 103.009 20.358 103.405 20.142C103.813 19.914 104.137 19.578 104.377 19.134C104.617 18.69 104.737 18.15 104.737 17.514C104.737 16.566 104.485 15.84 103.981 15.336C103.489 14.82 102.883 14.562 102.163 14.562C101.443 14.562 100.837 14.82 100.345 15.336C99.8646 15.84 99.6246 16.566 99.6246 17.514C99.6246 18.462 99.8586 19.194 100.327 19.71C100.807 20.214 101.407 20.466 102.127 20.466ZM114.883 12.384C116.071 12.384 117.031 12.762 117.763 13.518C118.495 14.262 118.861 15.306 118.861 16.65V22.5H116.341V16.992C116.341 16.2 116.143 15.594 115.747 15.174C115.351 14.742 114.811 14.526 114.127 14.526C113.431 14.526 112.879 14.742 112.471 15.174C112.075 15.594 111.877 16.2 111.877 16.992V22.5H109.357V12.528H111.877V13.77C112.213 13.338 112.639 13.002 113.155 12.762C113.683 12.51 114.259 12.384 114.883 12.384ZM130.708 17.298C130.708 17.658 130.684 17.982 130.636 18.27H123.346C123.406 18.99 123.658 19.554 124.102 19.962C124.546 20.37 125.092 20.574 125.74 20.574C126.676 20.574 127.342 20.172 127.738 19.368H130.456C130.168 20.328 129.616 21.12 128.8 21.744C127.984 22.356 126.982 22.662 125.794 22.662C124.834 22.662 123.97 22.452 123.202 22.032C122.446 21.6 121.852 20.994 121.42 20.214C121 19.434 120.79 18.534 120.79 17.514C120.79 16.482 121 15.576 121.42 14.796C121.84 14.016 122.428 13.416 123.184 12.996C123.94 12.576 124.81 12.366 125.794 12.366C126.742 12.366 127.588 12.57 128.332 12.978C129.088 13.386 129.67 13.968 130.078 14.724C130.498 15.468 130.708 16.326 130.708 17.298ZM128.098 16.578C128.086 15.93 127.852 15.414 127.396 15.03C126.94 14.634 126.382 14.436 125.722 14.436C125.098 14.436 124.57 14.628 124.138 15.012C123.718 15.384 123.46 15.906 123.364 16.578H128.098Z" fill="#E0E3E8"/>
</svg>
